<svg width="167" height="167" viewBox="0 0 167 167" fill="none" xmlns="http://www.w3.org/2000/svg">
<g clip-path="url(#clip0_317_240)">
<path d="M141.372 31.2568C130.726 26.4555 119.315 22.9068 107.381 20.8888C107.275 20.8684 107.165 20.8816 107.066 20.9265C106.968 20.9713 106.886 21.0457 106.831 21.1393C105.37 23.707 103.742 27.0539 102.601 29.6981C89.9438 27.8106 77.0771 27.8106 64.4203 29.6981C63.154 26.7654 61.7206 23.9078 60.127 21.1393C60.071 21.0465 59.9892 20.9721 59.8915 20.9251C59.7939 20.8782 59.6847 20.8607 59.5773 20.8749C47.6507 22.8928 36.239 26.4416 25.5858 31.2498C25.4991 31.296 25.4233 31.36 25.3631 31.4377C3.70879 63.272 -2.22666 94.3201 0.688878 124.979C0.696991 125.054 0.720298 125.126 0.757382 125.192C0.794466 125.258 0.84455 125.315 0.904586 125.361C13.5416 134.567 27.6394 141.577 42.6059 146.097C42.7103 146.127 42.8213 146.126 42.9252 146.094C43.0291 146.062 43.1213 146 43.1904 145.916C46.4061 141.606 49.2595 137.038 51.7213 132.257C51.7554 132.192 51.7751 132.12 51.7789 132.046C51.7828 131.972 51.7708 131.899 51.7438 131.83C51.7167 131.761 51.6752 131.699 51.6221 131.648C51.569 131.597 51.5056 131.558 51.436 131.533C46.9387 129.846 42.5829 127.803 38.41 125.424C38.335 125.381 38.2717 125.32 38.226 125.247C38.1803 125.174 38.1534 125.09 38.1479 125.004C38.1424 124.918 38.1584 124.832 38.1944 124.753C38.2304 124.674 38.2854 124.606 38.3543 124.554C39.2357 123.905 40.0986 123.239 40.9428 122.557C41.0197 122.5 41.11 122.463 41.2051 122.451C41.3002 122.439 41.3968 122.451 41.4856 122.487C68.811 134.762 98.4048 134.762 125.41 122.487C125.499 122.449 125.597 122.435 125.693 122.446C125.79 122.457 125.882 122.493 125.96 122.55C126.795 123.237 127.658 123.905 128.548 124.554C128.618 124.605 128.674 124.672 128.711 124.75C128.748 124.828 128.765 124.914 128.761 125C128.757 125.086 128.732 125.17 128.687 125.244C128.643 125.318 128.581 125.38 128.507 125.424C124.355 127.813 120.01 129.847 115.474 131.526C115.404 131.552 115.34 131.592 115.287 131.643C115.234 131.695 115.193 131.758 115.166 131.827C115.138 131.896 115.127 131.97 115.13 132.044C115.134 132.119 115.154 132.191 115.188 132.257C117.693 137.037 120.56 141.588 123.712 145.909C123.78 145.996 123.871 146.06 123.975 146.095C124.079 146.13 124.191 146.133 124.297 146.104C139.286 141.588 153.405 134.575 166.061 125.361C166.121 125.317 166.172 125.261 166.21 125.196C166.249 125.132 166.273 125.06 166.283 124.986C169.762 89.5398 160.452 58.7422 141.588 31.4516C141.542 31.3629 141.465 31.2938 141.372 31.2568ZM55.8058 106.309C47.5811 106.309 40.7967 98.8709 40.7967 89.7485C40.7967 80.6192 47.4489 73.1877 55.8058 73.1877C64.2254 73.1877 70.9472 80.6818 70.815 89.7485C70.815 98.8778 64.1628 106.309 55.8058 106.309ZM111.299 106.309C103.067 106.309 96.2894 98.8709 96.2894 89.7485C96.2894 80.6192 102.935 73.1877 111.299 73.1877C119.718 73.1877 126.44 80.6818 126.308 89.7485C126.308 98.8778 119.725 106.309 111.299 106.309Z" fill="white"/>
</g>
<defs>
<clipPath id="clip0_317_240">
<rect width="167" height="167" fill="white"/>
</clipPath>
</defs>
</svg>
