<svg width="51" height="38" viewBox="0 0 51 38" fill="none" xmlns="http://www.w3.org/2000/svg">
<path fill-rule="evenodd" clip-rule="evenodd" d="M45.8633 0.297238C46.473 0.0340497 47.1404 -0.0567223 47.7959 0.0343692C48.4515 0.125461 49.0712 0.395086 49.5907 0.815182C50.1101 1.23528 50.5103 1.79049 50.7495 2.42302C50.9887 3.05555 51.0583 3.74228 50.9509 4.41174L45.194 35.8405C44.6511 39.1984 40.1615 37.6417 36.5808 36.0709C33 34.5 30 33.5 26.5 31.5C24.3435 30.2677 21.7532 28.4477 22.2725 26.3488C22.8153 24.1549 31.646 18.3601 36.5806 13.4586C38.5175 11.533 36.2503 11.9376 35.5 12.5C35.7133 12.3401 21.8657 20.8985 22.2725 20.6436C19.6127 22.3036 16.2937 24.6742 12.6792 24.6742C9.61007 24.6742 5.95244 23.4053 3.66276 22.4311C0.568726 21.1152 -1.52992 19.2151 1.41114 17.9449L45.8633 0.297238Z" fill="#D9D9D9"/>
</svg>
