<svg width="305" height="80" viewBox="0 0 305 80" fill="none" xmlns="http://www.w3.org/2000/svg">
<rect x="33.1692" y="5.16923" width="269.662" height="70.6615" rx="18.3149" fill="#125641" stroke="#26A17B" strokeWidth="4.33846"/>
<path d="M182.942 26.4L183.436 26.894V49.2L179.636 53H163.22L159.42 49.2V26.894L159.914 26.4H163.866L164.36 26.894V46.806L166.146 48.592H176.71L178.496 46.806V26.894L178.99 26.4H182.942ZM191.892 53L191.398 52.506L191.892 49.086L192.462 48.592H206.902L208.612 46.882V43.766L206.902 42.056H195.198L191.398 38.256V30.2L195.198 26.4H213.058L213.552 26.894L213.058 30.314L212.488 30.808H198.048L196.338 32.518V35.976L198.048 37.686H209.752L213.552 41.486V49.2L209.752 53H191.892ZM222.014 53L221.52 52.506V26.856L222.014 26.4H241.736L245.536 30.2V49.2L241.736 53H222.014ZM226.46 48.592H238.886L240.596 46.882V32.518L238.886 30.808H226.46V48.592ZM252.852 30.846L252.358 26.894L252.852 26.4H275.044L275.5 26.894L275.006 30.846L274.436 31.34H266.418V52.544L265.924 53.038H261.972L261.478 52.544V31.34H253.422L252.852 30.846Z" fill="white"/>
<g clipPath="url(#clip0_2056_96)">
<path d="M40 80C62.0914 80 80 62.0914 80 40C80 17.9086 62.0914 0 40 0C17.9086 0 0 17.9086 0 40C0 62.0914 17.9086 80 40 80Z" fill="#26A17B"/>
<path fillRule="evenodd" clipRule="evenodd" d="M44.805 43.4578V43.4529C44.53 43.4729 43.1125 43.5579 39.95 43.5579C37.425 43.5579 35.6475 43.4829 35.0225 43.4529V43.4604C25.3025 43.0329 18.0475 41.3404 18.0475 39.3154C18.0475 37.2904 25.3025 35.6004 35.0225 35.1654V41.7753C35.6575 41.8203 37.4775 41.9279 39.9925 41.9279C43.01 41.9279 44.5225 41.8029 44.805 41.7779V35.1704C54.505 35.6029 61.7425 37.2954 61.7425 39.3154C61.7425 41.3404 54.505 43.0278 44.805 43.4578ZM44.805 34.4829V28.5679H58.34V19.5479H21.4875V28.5679H35.0225V34.4804C24.0225 34.9854 15.75 37.1654 15.75 39.7754C15.75 42.3854 24.0225 44.5629 35.0225 45.0704V64.0254H44.805V45.0653C55.7875 44.5603 64.04 42.3829 64.04 39.7754C64.04 37.1679 55.7875 34.9904 44.805 34.4829Z" fill="white"/>
</g>
<g clipPath="url(#clip1_2056_96)">
<path d="M95.7012 29.8079V50.1919C95.7012 51.5023 96.3876 52.6879 97.5316 53.3535L115.191 63.5455C116.314 64.1903 117.708 64.1903 118.831 63.5455L136.49 53.3535C137.613 52.7087 138.32 51.5023 138.32 50.1919V29.8079C138.32 28.4975 137.634 27.3119 136.49 26.6463L118.831 16.4543C117.708 15.8095 116.314 15.8095 115.191 16.4543L97.5316 26.6463C96.4084 27.2911 95.722 28.4975 95.722 29.8079H95.7012Z" fill="#213147"/>
<path d="M120.849 43.9519L118.332 50.8575C118.27 51.0447 118.27 51.2527 118.332 51.4607L122.658 63.3375L127.671 60.4463L121.66 43.9519C121.514 43.5775 120.994 43.5775 120.849 43.9519Z" fill="#12AAFF"/>
<path d="M125.903 32.3455C125.758 31.9711 125.238 31.9711 125.092 32.3455L122.575 39.2511C122.513 39.4383 122.513 39.6463 122.575 39.8543L129.668 59.3023L134.681 56.4111L125.903 32.3663V32.3455Z" fill="#12AAFF"/>
<path d="M117.001 17.224C117.125 17.224 117.25 17.2656 117.354 17.328L136.449 28.352C136.677 28.4768 136.802 28.7264 136.802 28.976V51.024C136.802 51.2736 136.657 51.5232 136.449 51.648L117.354 62.672C117.25 62.7344 117.125 62.776 117.001 62.776C116.876 62.776 116.751 62.7344 116.647 62.672L97.5525 51.648C97.3237 51.5232 97.1989 51.2736 97.1989 51.024V28.9552C97.1989 28.7056 97.3445 28.456 97.5525 28.3312L116.647 17.3072C116.751 17.2448 116.876 17.2032 117.001 17.2032V17.224ZM117.001 14C116.314 14 115.649 14.1664 115.025 14.52L95.9301 25.544C94.7029 26.2512 93.9541 27.5408 93.9541 28.9552V51.0032C93.9541 52.4176 94.7029 53.7072 95.9301 54.4144L115.025 65.4384C115.628 65.792 116.314 65.9584 117.001 65.9584C117.687 65.9584 118.353 65.792 118.977 65.4384L138.071 54.4144C139.298 53.7072 140.047 52.4176 140.047 51.0032V28.9552C140.047 27.5408 139.298 26.2512 138.071 25.544L118.956 14.52C118.353 14.1664 117.666 14 116.98 14H117.001Z" fill="#9DCCED"/>
<path d="M104.354 59.3232L106.122 54.4976L109.658 57.4304L106.351 60.4672L104.354 59.3232Z" fill="#213147"/>
<path d="M115.378 27.3953H110.531C110.178 27.3953 109.845 27.6241 109.72 27.9569L99.3408 56.4113L104.354 59.3025L115.794 27.9569C115.898 27.6657 115.69 27.3745 115.398 27.3745L115.378 27.3953Z" fill="white"/>
<path d="M123.864 27.3953H119.018C118.664 27.3953 118.331 27.6241 118.207 27.9569L106.351 60.4465L111.363 63.3377L124.259 27.9569C124.363 27.6657 124.155 27.3745 123.864 27.3745V27.3953Z" fill="white"/>
</g>
<defs>
<clipPath id="clip0_2056_96">
<rect width="80" height="80" fill="white"/>
</clipPath>
<clipPath id="clip1_2056_96">
<rect width="52" height="52" fill="white" transform="translate(91 14)"/>
</clipPath>
</defs>
</svg>
