<svg width="1587" height="1587" viewBox="0 0 1587 1587" fill="none" xmlns="http://www.w3.org/2000/svg">
<rect width="1587" height="1587" rx="240" fill="#213147"/>
<g clipPath="url(#clip0_2054_37)">
<path d="M249.871 537.104V1056.9C249.871 1090.31 267.374 1120.54 296.546 1137.52L746.856 1397.41C775.497 1413.86 811.034 1413.86 839.676 1397.41L1289.99 1137.52C1318.63 1121.07 1336.66 1090.31 1336.66 1056.9V537.104C1336.66 503.689 1319.16 473.456 1289.99 456.484L839.676 196.588C811.034 180.145 775.497 180.145 746.856 196.588L296.546 456.484C267.905 472.926 250.401 503.689 250.401 537.104H249.871Z" fill="#213147"/>
<path d="M891.126 897.776L826.947 1073.87C825.356 1078.64 825.356 1083.95 826.947 1089.25L937.271 1392.11L1065.1 1318.38L911.811 897.776C908.099 888.228 894.839 888.228 891.126 897.776Z" fill="#12AAFF"/>
<path d="M1020.01 601.813C1016.3 592.266 1003.04 592.266 999.327 601.813L935.148 777.906C933.557 782.679 933.557 787.983 935.148 793.287L1116.01 1289.21L1243.84 1215.49L1020.01 602.343V601.813Z" fill="#12AAFF"/>
<path d="M793.002 216.212C796.184 216.212 799.366 217.273 802.018 218.864L1288.93 499.976C1294.76 503.158 1297.94 509.523 1297.94 515.888V1078.11C1297.94 1084.48 1294.23 1090.84 1288.93 1094.02L802.018 1375.14C799.366 1376.73 796.184 1377.79 793.002 1377.79C789.819 1377.79 786.637 1376.73 783.985 1375.14L297.078 1094.02C291.243 1090.84 288.061 1084.48 288.061 1078.11V515.358C288.061 508.993 291.774 502.628 297.078 499.446L783.985 218.334C786.637 216.742 789.819 215.682 793.002 215.682V216.212ZM793.002 134C775.498 134 758.526 138.243 742.614 147.26L255.706 428.372C224.413 446.406 205.318 479.29 205.318 515.358V1077.58C205.318 1113.65 224.413 1146.53 255.706 1164.57L742.614 1445.68C757.995 1454.7 775.498 1458.94 793.002 1458.94C810.505 1458.94 827.478 1454.7 843.39 1445.68L1330.3 1164.57C1361.59 1146.53 1380.68 1113.65 1380.68 1077.58V515.358C1380.68 479.29 1361.59 446.406 1330.3 428.372L842.859 147.26C827.478 138.243 809.974 134 792.471 134H793.002Z" fill="#9DCCED"/>
<path d="M470.518 1289.74L515.602 1166.69L605.77 1241.48L521.436 1318.91L470.518 1289.74Z" fill="#213147"/>
<path d="M751.63 475.577H628.047C619.03 475.577 610.543 481.412 607.361 489.898L342.691 1215.49L470.518 1289.21L762.238 489.898C764.89 482.472 759.586 475.047 752.16 475.047L751.63 475.577Z" fill="white"/>
<path d="M968.033 475.577H844.45C835.433 475.577 826.947 481.412 823.765 489.898L521.437 1318.38L649.263 1392.11L978.111 489.898C980.763 482.472 975.459 475.047 968.033 475.047V475.577Z" fill="white"/>
</g>
<defs>
<clipPath id="clip0_2054_37">
<rect width="1326" height="1326" fill="white" transform="translate(130 134)"/>
</clipPath>
</defs>
</svg>
