<svg width="152" height="152" viewBox="0 0 152 152" fill="none" xmlns="http://www.w3.org/2000/svg">
<g clip-path="url(#clip0_4622_2)">
<path d="M0 12.008C0 7.89496 0 5.83842 0.774992 4.25646C1.51701 2.74181 2.74181 1.51701 4.25646 0.774992C5.83842 0 7.89496 0 12.008 0H139.992C144.105 0 146.162 0 147.743 0.774992C149.258 1.51701 150.483 2.74181 151.225 4.25646C152 5.83842 152 7.89496 152 12.008V139.992C152 144.105 152 146.162 151.225 147.743C150.483 149.258 149.258 150.483 147.743 151.225C146.162 152 144.105 152 139.992 152H12.008C7.89496 152 5.83842 152 4.25646 151.225C2.74181 150.483 1.51701 149.258 0.774992 147.743C0 146.162 0 144.105 0 139.992V12.008Z" fill="#0101FF"/>
</g>
<defs>
<clipPath id="clip0_4622_2">
<rect width="152" height="152" fill="white"/>
</clipPath>
</defs>
</svg>
