<svg width="133" height="133" viewBox="0 0 133 133" fill="none" xmlns="http://www.w3.org/2000/svg">
<path
        d="M131.011 82.5816C122.126 118.226 86.0125 139.893 50.4194 131.008C14.7744 122.123 -6.89322 86.011 1.99233 50.4184C10.8774 14.7744 46.9381 -6.89322 82.5831 1.99234C118.176 10.8254 139.896 46.937 131.011 82.5816Z"
        fill="url(#paint0_linear_110_1891)"
    />
<path
        d="M98.1637 58.2134C99.4625 49.3813 92.7606 44.6016 83.5129 41.4325L86.5262 29.4313L79.2528 27.6129L76.3434 39.3024C74.4211 38.8348 72.4469 38.3673 70.4727 37.9516L73.382 26.2102L66.1086 24.3918L63.1473 36.3411C61.5367 35.9774 59.9781 35.6137 58.4715 35.2501V35.1981L48.3926 32.7044L46.4703 40.4973C46.4703 40.4973 51.8734 41.7442 51.7695 41.7962C54.7309 42.5235 55.2504 44.4977 55.1465 46.0563L51.7176 59.72C51.9254 59.772 52.1852 59.8239 52.4969 59.9798C52.2371 59.9278 51.9773 59.8759 51.7176 59.772L46.9379 78.8907C46.5742 79.7739 45.6391 81.1247 43.6129 80.6052C43.6648 80.7091 38.3137 79.3064 38.3137 79.3064L34.6769 87.6708L44.1844 90.0607C45.9508 90.5282 47.6652 90.9439 49.3797 91.4114L46.3664 103.517L53.6398 105.335L56.6531 93.3337C58.6273 93.8532 60.6016 94.3728 62.4719 94.8404L59.5105 106.79L66.784 108.608L69.7973 96.5029C82.266 98.8408 91.6176 97.9056 95.5141 86.6318C98.6832 77.5919 95.3582 72.3446 88.8121 68.9157C93.6438 67.8247 97.2285 64.6556 98.1637 58.2134ZM81.4867 81.5923C79.2528 90.6322 63.9785 85.7485 59.043 84.5017L63.0434 68.4481C67.9789 69.695 83.8766 72.1368 81.4867 81.5923ZM83.7727 58.0575C81.6945 66.3181 69.018 62.1099 64.9137 61.0708L68.5504 46.5239C72.6547 47.563 85.9028 49.4852 83.7727 58.0575Z"
        fill="white"
    />
<defs>
<linearGradient id="paint0_linear_110_1891" x1="6646.41" y1="-3.192" x2="6646.41" y2="13298.7" gradientUnits="userSpaceOnUse">
<stop stopColor="#F9AA4B" />
<stop offset="1" stopColor="#F7931A" />
</linearGradient>
</defs>
</svg>
