<svg width="190" height="69" viewBox="0 0 190 69" fill="none" xmlns="http://www.w3.org/2000/svg">
<rect
        x="27.8369"
        y="4.83691"
        width="160.326"
        height="60.3262"
        rx="15.5091"
        fill="url(#paint0_linear_4489_656)"
        stroke="#627EEA"
        strokeWidth="3.67381"
    />
<path
        d="M67.4308 42.8542C62.9149 60.9705 44.5602 71.9832 26.4697 67.467C8.35291 62.9512 -2.65977 44.5972 1.85637 26.5071C6.37224 8.39076 24.7003 -2.62193 42.8171 1.89421C60.9076 6.38368 71.9469 24.7376 67.4308 42.8542Z"
        fill="url(#paint1_linear_4489_656)"
    />
<path
        d="M50.7358 30.4688C51.3959 25.9799 47.9896 23.5506 43.2894 21.9398L44.821 15.8401L41.1242 14.916L39.6455 20.8572C38.6685 20.6195 37.6651 20.3819 36.6617 20.1707L38.1404 14.203L34.4436 13.2788L32.9385 19.3521C32.1199 19.1672 31.3277 18.9824 30.562 18.7976V18.7712L25.4393 17.5037L24.4623 21.4645C24.4623 21.4645 27.2085 22.0983 27.1557 22.1247C28.6608 22.4943 28.9248 23.4977 28.872 24.2899L27.1293 31.2346C27.2349 31.261 27.3669 31.2874 27.5254 31.3666C27.3933 31.3402 27.2613 31.3138 27.1293 31.261L24.7 40.9782C24.5151 41.4271 24.0398 42.1136 23.01 41.8496C23.0364 41.9024 20.3166 41.1894 20.3166 41.1894L18.4683 45.4407L23.3005 46.6554C24.1983 46.893 25.0696 47.1043 25.941 47.3419L24.4095 53.4944L28.1063 54.4186L29.6378 48.3189C30.6412 48.583 31.6446 48.847 32.5952 49.0847L31.0901 55.158L34.7869 56.0822L36.3184 49.9297C42.6557 51.1179 47.4087 50.6426 49.3891 44.9126C50.9999 40.3181 49.3099 37.6511 45.9828 35.9083C48.4385 35.3538 50.2605 33.7431 50.7358 30.4688ZM42.2596 42.3513C41.1242 46.9459 33.361 44.4637 30.8524 43.83L32.8857 35.6707C35.3942 36.3044 43.4743 37.5455 42.2596 42.3513ZM43.4215 30.3896C42.3653 34.5881 35.9223 32.4492 33.8363 31.9211L35.6847 24.5276C37.7707 25.0557 44.5041 26.0327 43.4215 30.3896Z"
        fill="white"
    />
<path
        d="M34.6428 68.4797C53.3095 68.4797 68.4419 53.3474 68.4419 34.6807C68.4419 16.0139 53.3095 0.881592 34.6428 0.881592C15.9761 0.881592 0.84375 16.0139 0.84375 34.6807C0.84375 53.3474 15.9761 68.4797 34.6428 68.4797Z"
        fill="#627EEA"
    />
<path d="M35.6948 9.3313V28.0687L51.5318 35.1453L35.6948 9.3313Z" fill="white" fillOpacity="0.602" />
<path d="M35.695 9.3313L19.856 35.1453L35.695 28.0687V9.3313Z" fill="white" />
<path d="M35.6948 47.2881V60.0198L51.5424 38.0947L35.6948 47.2881Z" fill="white" fillOpacity="0.602" />
<path d="M35.695 60.0198V47.286L19.856 38.0947L35.695 60.0198Z" fill="white" />
<path d="M35.6948 44.3412L51.5318 35.1457L35.6948 28.0732V44.3412Z" fill="white" fillOpacity="0.2" />
<path d="M19.856 35.1457L35.695 44.3412V28.0732L19.856 35.1457Z" fill="white" fillOpacity="0.602" />
<path
        d="M89.7783 47.5549V22.1897H106.196V26.0042H94.3135V32.842H105.546V36.5159H94.3135V43.7405H106.196V47.5549H89.7783ZM117.419 47.5549V26.0042H109.825V22.1897H129.513V26.0042H121.936V47.5549H117.419ZM133.704 47.5549V22.1897H138.239V32.7366H150.579V22.1897H155.097V47.5549H150.579V36.551H138.239V47.5549H133.704Z"
        fill="white"
    />
<defs>
<linearGradient id="paint0_linear_4489_656" x1="108" y1="3" x2="108" y2="67" gradientUnits="userSpaceOnUse">
<stop stopColor="#2E40B7" />
<stop offset="1" stopColor="#2E45B0" />
</linearGradient>
<linearGradient id="paint1_linear_4489_656" x1="3378.92" y1="-0.740762" x2="3378.92" y2="6760.01" gradientUnits="userSpaceOnUse">
<stop stopColor="#F9AA4B" />
<stop offset="1" stopColor="#F7931A" />
</linearGradient>
</defs>
</svg>
