<svg width="196" height="69" viewBox="0 0 196 69" fill="none" xmlns="http://www.w3.org/2000/svg">
<rect
        x="26.8369"
        y="4.83691"
        width="167.326"
        height="60.3262"
        rx="15.5091"
        fill="url(#paint0_linear_1_829)"
        stroke="#627EEA"
        strokeWidth="3.67381"
    />
<path
        d="M33.7991 68.48C52.4658 68.48 67.5981 53.3476 67.5981 34.6809C67.5981 16.0142 52.4658 0.881836 33.7991 0.881836C15.1324 0.881836 0 16.0142 0 34.6809C0 53.3476 15.1324 68.48 33.7991 68.48Z"
        fill="#627EEA"
    />
<path d="M34.8506 9.33154V28.0689L50.6876 35.1456L34.8506 9.33154Z" fill="white" fillOpacity="0.602" />
<path d="M34.8508 9.33154L19.0117 35.1456L34.8508 28.0689V9.33154Z" fill="white" />
<path d="M34.8506 47.2881V60.0198L50.6981 38.0947L34.8506 47.2881Z" fill="white" fillOpacity="0.602" />
<path d="M34.8508 60.0198V47.286L19.0117 38.0947L34.8508 60.0198Z" fill="white" />
<path d="M34.8506 44.3412L50.6876 35.1457L34.8506 28.0732V44.3412Z" fill="white" fillOpacity="0.2" />
<path d="M19.0117 35.1457L34.8508 44.3412V28.0732L19.0117 35.1457Z" fill="white" fillOpacity="0.602" />
<path
        d="M105.68 48.5552H89.7837V20.4877H105.68V24.3657H94.3912V31.9873H104.969V35.8461H94.3912V44.658H105.68V48.5552ZM122.659 48.5552H118.032V24.4041H109.816V20.4877H130.857V24.4041H122.659V48.5552ZM158.472 48.5552H153.884V35.8845H140.944V48.5552H136.337V20.4877H140.944V31.9681H153.884V20.4877H158.472V48.5552Z"
        fill="white"
    />
<defs>
<linearGradient id="paint0_linear_1_829" x1="110.5" y1="3" x2="110.5" y2="67" gradientUnits="userSpaceOnUse">
<stop stopColor="#2E40B7" />
<stop offset="1" stopColor="#2E45B0" />
</linearGradient>
</defs>
</svg>
