<svg width="133" height="134" viewBox="0 0 133 134" fill="none" xmlns="http://www.w3.org/2000/svg">
<path
        d="M131.011 83.3351C122.126 118.979 86.0125 140.647 50.4194 131.761C14.7744 122.876 -6.89321 86.7645 1.99233 51.172C10.8774 15.528 46.938 -6.13961 82.583 2.74594C118.176 11.579 139.896 47.6906 131.011 83.3351Z"
        fill="url(#paint0_linear_110_1894)"
    />
<path
        d="M98.1632 58.9669C99.462 50.1349 92.76 45.3552 83.5124 42.1861L86.5257 30.1849L79.2522 28.3665L76.3429 40.056C74.4206 39.5884 72.4464 39.1208 70.4722 38.7052L73.3815 26.9638L66.1081 25.1454L63.1468 37.0947C61.5362 36.731 59.9776 36.3673 58.471 36.0036V35.9517L48.3921 33.4579L46.4698 41.2509C46.4698 41.2509 51.8729 42.4978 51.769 42.5497C54.7304 43.2771 55.2499 45.2513 55.146 46.8099L51.7171 60.4736C51.9249 60.5255 52.1847 60.5775 52.4964 60.7333C52.2366 60.6814 51.9768 60.6294 51.7171 60.5255L46.9374 79.6443C46.5737 80.5275 45.6386 81.8783 43.6124 81.3587C43.6643 81.4626 38.3132 80.0599 38.3132 80.0599L34.6765 88.4244L44.1839 90.8142C45.9503 91.2818 47.6647 91.6974 49.3792 92.165L46.3659 104.27L53.6393 106.088L56.6526 94.0872C58.6268 94.6068 60.6011 95.1263 62.4714 95.5939L59.51 107.543L66.7835 109.361L69.7968 97.2564C82.2655 99.5943 91.6171 98.6591 95.5136 87.3853C98.6827 78.3455 95.3577 73.0982 88.8116 69.6693C93.6433 68.5783 97.228 65.4091 98.1632 58.9669ZM81.4862 82.3458C79.2522 91.3857 63.978 86.5021 59.0425 85.2552L63.0429 69.2017C67.9784 70.4486 83.8761 72.8904 81.4862 82.3458ZM83.7722 58.8111C81.694 67.0716 69.0175 62.8634 64.9132 61.8244L68.5499 47.2775C72.6542 48.3165 85.9022 50.2388 83.7722 58.8111Z"
        fill="white"
    />
<path
        d="M66.5 133.754C103.227 133.754 133 103.981 133 67.2536C133 30.5267 103.227 0.753601 66.5 0.753601C29.7731 0.753601 0 30.5267 0 67.2536C0 103.981 29.7731 133.754 66.5 133.754Z"
        fill="#627EEA"
    />
<path d="M68.5699 17.3785V54.2445L99.7294 68.1679L68.5699 17.3785Z" fill="white" fillOpacity="0.602" />
<path d="M68.5703 17.3785L37.4067 68.1678L68.5703 54.2444V17.3785Z" fill="white" />
<path d="M68.5699 92.0586V117.108L99.7501 73.9706L68.5699 92.0586Z" fill="white" fillOpacity="0.602" />
<path d="M68.5703 117.108V92.0544L37.4067 73.9706L68.5703 117.108Z" fill="white" />
<path d="M68.5699 86.2605L99.7293 68.1684L68.5699 54.2532V86.2605Z" fill="white" fillOpacity="0.2" />
<path d="M37.4067 68.1684L68.5703 86.2605V54.2532L37.4067 68.1684Z" fill="white" fillOpacity="0.602" />
<defs>
<linearGradient id="paint0_linear_110_1894" x1="6646.4" y1="-2.4384" x2="6646.4" y2="13299.4" gradientUnits="userSpaceOnUse">
<stop stopColor="#F9AA4B" />
<stop offset="1" stopColor="#F7931A" />
</linearGradient>
</defs>
</svg>
