<svg width="227" height="80" viewBox="0 0 227 80" fill="none" xmlns="http://www.w3.org/2000/svg">
<rect
        x="34.1985"
        y="5.15654"
        width="190.121"
        height="71.1575"
        rx="18.3149"
        fill="#2E40B7"
        stroke="#627EEA"
        strokeWidth="4.33846"
    />
<path
        d="M81.913 49.6731C76.3577 71.1131 53.7784 84.1462 31.5242 78.8015C9.23751 73.4571 -4.30991 51.7359 1.24568 30.3268C6.80095 8.88683 29.3475 -4.14629 51.6342 1.1984C73.8884 6.51152 87.4686 28.2328 81.913 49.6731Z"
        fill="url(#paint0_linear_1572_110)"
    />
<path
        d="M61.376 35.0159C62.1881 29.7034 57.9978 26.8284 52.2158 24.9221L54.0998 17.7034L49.5522 16.6096L47.7331 23.6409C46.5312 23.3596 45.2969 23.0784 44.0625 22.8284L45.8816 15.7659L41.3339 14.6721L39.4824 21.8596C38.4754 21.6409 37.5009 21.4221 36.5589 21.2034V21.1721L30.2572 19.6721L29.0553 24.3596C29.0553 24.3596 32.4336 25.1096 32.3686 25.1409C34.2201 25.5784 34.545 26.7659 34.48 27.7034L32.3361 35.9221C32.466 35.9534 32.6285 35.9846 32.8234 36.0784C32.6609 36.0471 32.4985 36.0159 32.3361 35.9534L29.3477 47.4534C29.1203 47.9846 28.5356 48.7971 27.2687 48.4846C27.3012 48.5471 23.9555 47.7034 23.9555 47.7034L21.6816 52.7346L27.6261 54.1721C28.7305 54.4534 29.8024 54.7034 30.8744 54.9846L28.9903 62.2659L33.538 63.3596L35.422 56.1409C36.6564 56.4534 37.8907 56.7659 39.0601 57.0471L37.2086 64.2346L41.7562 65.3284L43.6402 58.0471C51.4362 59.4534 57.2831 58.8909 59.7194 52.1096C61.7008 46.6721 59.6219 43.5159 55.5291 41.4534C58.55 40.7971 60.7913 38.8909 61.376 35.0159ZM50.9489 49.0784C49.5522 54.5159 40.0021 51.5784 36.9162 50.8284L39.4174 41.1721C42.5033 41.9221 52.4432 43.3909 50.9489 49.0784ZM52.3782 34.9221C51.0789 39.8909 43.153 37.3596 40.5868 36.7346L42.8606 27.9846C45.4268 28.6096 53.71 29.7659 52.3782 34.9221Z"
        fill="white"
    />
<path
        d="M41.5794 80C64.5425 80 83.1578 62.0914 83.1578 40C83.1578 17.9086 64.5425 0 41.5794 0C18.6163 0 0.000976562 17.9086 0.000976562 40C0.000976562 62.0914 18.6163 80 41.5794 80Z"
        fill="#627EEA"
    />
<path d="M42.873 9.99878V32.1738L62.3551 40.5488L42.873 9.99878Z" fill="white" fill-opacity="0.602" />
<path d="M42.8733 9.99902L23.3887 40.549L42.8733 32.174V9.99902Z" fill="white" />
<path d="M42.873 54.9198V69.9873L62.3681 44.0398L42.873 54.9198Z" fill="white" fill-opacity="0.602" />
<path d="M42.8733 69.9873V54.9173L23.3887 44.0398L42.8733 69.9873Z" fill="white" />
<path d="M42.873 51.4322L62.3551 40.5497L42.873 32.1797V51.4322Z" fill="white" fill-opacity="0.2" />
<path d="M23.3887 40.5497L42.8733 51.4322V32.1797L23.3887 40.5497Z" fill="white" fill-opacity="0.602" />
<path
        d="M101.914 53L101.42 52.506V26.894L101.914 26.4H123.08L123.574 26.894L123.042 30.314L122.396 30.808H106.36V37.534H119.66L120.154 38.028L119.66 41.448L119.09 41.942H106.36V48.592H122.472L123.042 49.086L123.574 52.506L123.08 53H101.914ZM130.896 30.846L130.402 26.894L130.896 26.4H153.088L153.544 26.894L153.05 30.846L152.48 31.34H144.462V52.544L143.968 53.038H140.016L139.522 52.544V31.34H131.466L130.896 30.846ZM185.408 26.4L185.902 26.894V52.506L185.408 53H181.456L180.962 52.506V41.904H165.306V52.506L164.812 53H160.86L160.366 52.506V26.894L160.86 26.4H164.812L165.306 26.894V37.496H180.962V26.894L181.456 26.4H185.408Z"
        fill="white"
    />
<defs>
<linearGradient
            id="paint0_linear_1572_110"
            x1="4155.59"
            y1="-1.92"
            x2="4155.59"
            y2="7999.19"
            gradientUnits="userSpaceOnUse"
        >
<stop stopColor="#F9AA4B" />
<stop offset="1" stopColor="#F7931A" />
</linearGradient>
</defs>
</svg>
