<svg width="244" height="41" viewBox="0 0 244 41" fill="none" xmlns="http://www.w3.org/2000/svg">
<path
        d="M30.7542 0.639999L19.9942 33.08H12.1142L17.1142 17.92H12.9142L7.87422 33.08H0.0342187L10.7942 0.639999H18.6342L14.6342 12.8H18.8342L22.8342 0.639999H30.7542ZM51.7377 9.72L47.4977 22.44H44.4977L41.9777 30.04H38.9377L36.9377 36.08H33.8977L32.3777 40.64H24.5777L27.2977 32.44H30.2577L31.0577 30.04H28.0977L30.6177 22.44H27.5777L31.7777 9.72H39.6977L36.6577 18.8H38.2577L35.7377 26.4H36.8577L39.3777 18.8H40.8577L43.8977 9.72H51.7377ZM74.5758 11.24L67.8558 31.56H64.8158L64.2958 33.08H55.2558L52.7358 40.64H44.8958L55.1758 9.72H72.0558L71.5358 11.24H74.5758ZM65.4958 14.88H61.2958L56.9758 27.92H61.1758L65.4958 14.88ZM98.3448 11.24L94.9048 21.64H82.7848L80.7448 27.92H84.9448L86.3848 23.52H94.2648L91.6248 31.56H88.5848L88.0648 33.08H74.1848L74.7048 31.56H71.7048L78.4248 11.24H81.4248L81.9048 9.72H95.7848L95.3048 11.24H98.3448ZM89.2648 14.88H85.0648L83.7448 18.8H87.9448L89.2648 14.88ZM119.331 9.72L117.611 14.88H111.611L111.091 16.4H108.051L102.531 33.08H94.6911L102.451 9.72H109.211L108.691 11.24H110.211L110.691 9.72H119.331ZM144.652 2.16L141.332 12.12H138.292L137.572 14.28H140.652L134.892 31.56H131.852L131.372 33.08H114.492L125.252 0.639999H142.092L141.612 2.16H144.652ZM135.572 5.8H131.372L129.052 12.8H133.252L135.572 5.8ZM131.532 17.92H127.332L124.012 27.92H128.212L131.532 17.92ZM163.12 9.72L161.4 14.88H155.4L154.88 16.4H151.84L146.32 33.08H138.48L146.24 9.72H153L152.48 11.24H154L154.48 9.72H163.12ZM176.441 0.399998L174.201 7.12H166.361L168.601 0.399998H176.441ZM173.321 9.72L165.601 33.08H157.761L165.521 9.72H173.321ZM199.34 0.639999L188.58 33.08H171.66L172.18 31.56H169.18L175.9 11.24H178.9L179.38 9.72H188.46L191.46 0.639999H199.34ZM186.74 14.88H182.54L178.22 27.92H182.42L186.74 14.88ZM220.197 9.72L210.437 39.16H207.397L206.877 40.64H192.997L193.517 39.16H190.517L192.237 34H200.077L199.557 35.52H203.757L204.557 33.08H195.517L196.037 31.56H193.037L199.757 11.24H202.757L203.277 9.72H220.197ZM210.597 14.88H206.397L202.077 27.92H206.277L210.597 14.88ZM243.579 11.24L240.139 21.64H228.019L225.979 27.92H230.179L231.619 23.52H239.499L236.859 31.56H233.819L233.299 33.08H219.419L219.939 31.56H216.939L223.659 11.24H226.659L227.139 9.72H241.019L240.539 11.24H243.579ZM234.499 14.88H230.299L228.979 18.8H233.179L234.499 14.88Z"
        fill="url(#paint0_linear_3905_7652)"
    />
<defs>
<linearGradient id="paint0_linear_3905_7652" x1="245" y1="16" x2="-6.99999" y2="16" gradientUnits="userSpaceOnUse">
<stop stopColor="#E18128" />
<stop offset="1" stopColor="#5865F2" />
</linearGradient>
</defs>
</svg>
