<svg width="2293" height="547" viewBox="0 0 2293 547" fill="none" xmlns="http://www.w3.org/2000/svg">
<path
        fillRule="evenodd"
        clipRule="evenodd"
        d="M1039 54.7764V546.997H1169.27V109.553H1626V-0.000172489H1104.13C1086.22 -0.000172489 1070.88 5.36252 1058.13 16.088C1045.38 26.8135 1039 39.7097 1039 54.7764ZM815 0V109.55V546.997H944.812V109.55V0H815ZM1718 0V109.55H1940.27V546.997H2070.09V109.55H2292.36V0H1718ZM1549.09 219.305H1626V306.69L1272 306.69L1202 219.305L1549.09 219.305ZM0 273.501V547H70.2531H130.506V322.839V98.6771L300.702 98.6994L310.51 98.7007C461.956 98.7193 478.794 98.7213 494.25 103.345C496.183 103.923 498.095 104.574 500.246 105.306C500.61 105.43 500.981 105.556 501.36 105.685C546.378 120.96 571.84 155.239 571.84 200.569C571.84 257.606 531.515 296.845 467.21 302.38C457.186 303.242 401.507 303.775 321.272 303.775H160.5L226.542 393.177H306.394H421.245L493.022 470.027L564.798 546.878L644.222 546.938C687.907 546.972 723.647 546.716 723.647 546.37C723.647 546.024 686.321 508.03 640.701 461.94C595.081 415.85 557.755 377.818 557.755 377.426C557.755 377.033 563.918 374.168 571.452 371.059C590.276 363.29 612.143 349.979 628.098 336.574C659.488 310.204 679.415 278.173 690.217 236.724C694.705 219.499 694.344 170.081 689.598 152.24C678.862 111.881 657.916 79.8054 625.234 53.6791C594.043 28.7439 531.5 0.828266 492.807 0.828266L251.404 0.414123L65.1071 0.107247C29.1668 0.0480449 0 29.1668 0 65.1072V273.501Z"
        fill="white"
    />
</svg>
