<svg width="52" height="52" viewBox="0 0 52 52" fill="none" xmlns="http://www.w3.org/2000/svg">
<path d="M25.5 50C39.031 50 50 39.031 50 25.5C50 11.969 39.031 1 25.5 1C11.969 1 1 11.969 1 25.5C1 39.031 11.969 50 25.5 50Z" fill="white"/>
<path fill-rule="evenodd" clip-rule="evenodd" d="M25.8333 51.6667C40.1553 51.6667 51.6667 40.1553 51.6667 25.8333C51.6667 11.5113 40.1553 0 25.8333 0C11.5113 0 0 11.5113 0 25.8333C0 40.1553 11.5113 51.6667 25.8333 51.6667ZM32.9375 29.915C32.9375 26.1537 30.6771 24.862 26.1563 24.3298C22.9271 23.8958 22.2813 23.0382 22.2813 21.5218C22.2813 20.0183 23.3663 19.0521 25.5104 19.0521C27.4479 19.0521 28.5329 19.6979 29.0625 21.3099C29.121 21.4649 29.2246 21.5987 29.36 21.6941C29.4955 21.7894 29.6564 21.8419 29.822 21.8447H31.5348C31.6339 21.8478 31.7327 21.8308 31.8251 21.7947C31.9175 21.7586 32.0016 21.7041 32.0724 21.6346C32.1431 21.5651 32.199 21.4819 32.2367 21.3901C32.2744 21.2983 32.2931 21.1999 32.2917 21.1007V20.987C31.8577 18.6155 29.9202 16.3551 27.4479 16.1432V13.7718C27.4479 13.3352 27.125 13.0123 26.5954 12.9141H25.1746C24.7354 12.9141 24.3324 13.237 24.2188 13.7718V16.1432C20.9896 16.5824 18.8454 19.0521 18.8454 21.7491C18.8454 25.2986 20.9896 26.6884 25.5104 27.2361C28.5329 27.7683 29.4991 28.4167 29.4991 30.1423C29.4991 31.8551 27.9827 33.0486 25.947 33.0486C23.1389 33.0486 22.1702 31.8551 21.8473 30.2405C21.7491 29.8194 21.4262 29.5947 21.1033 29.5947H19.2639C19.1647 29.5932 19.0663 29.6119 18.9745 29.6496C18.8827 29.6873 18.7995 29.7432 18.73 29.814C18.6604 29.8847 18.606 29.9688 18.5699 30.0612C18.5338 30.1537 18.5168 30.2524 18.5199 30.3516V30.4653C18.941 33.1468 20.6667 34.9861 24.2213 35.5208V37.9078C24.2213 38.347 24.5443 38.6363 25.0738 38.7474H26.6238C27.0449 38.7474 27.3368 38.4581 27.4505 37.9078V35.5183C30.6797 34.9861 32.9375 32.8238 32.9375 29.9176M14.9627 37.9621C16.5232 39.3939 18.3522 40.502 20.3438 41.2223C20.6667 41.447 20.9896 41.8681 20.9896 42.191V43.7074C20.9896 43.9167 20.9896 44.0303 20.8785 44.1285C20.7803 44.5625 20.3438 44.7743 19.9098 44.5625C15.9924 43.3152 12.5733 40.8542 10.1469 37.5353C7.72064 34.2165 6.41292 30.2119 6.41292 26.1007C6.41292 21.9895 7.72064 17.9849 10.1469 14.6661C12.5733 11.3472 15.9924 8.8862 19.9098 7.63892C20.0208 7.54075 20.2327 7.54075 20.3438 7.54075C20.7829 7.63892 20.9896 7.96183 20.9896 8.39583V9.89933C20.9896 10.447 20.7829 10.7699 20.3438 10.9792C18.1428 11.7747 16.144 13.0451 14.4893 14.7001C12.8347 16.3552 11.5648 18.3544 10.7699 20.5556C9.65952 23.5451 9.46532 26.7977 10.2121 29.8982C10.9589 32.9986 12.6128 35.806 14.9627 37.9621ZM30.7908 8.07292C30.8889 7.63892 31.3229 7.42708 31.7595 7.63892C34.719 8.60018 37.4059 10.2547 39.5966 12.4646C41.7872 14.6746 43.418 17.3759 44.3533 20.3438C47.5824 30.566 41.9792 41.447 31.7595 44.6762C31.6458 44.7743 31.4366 44.7743 31.3229 44.7743C30.8889 44.6762 30.6771 44.3533 30.6771 43.9167V42.4183C30.6771 41.8681 30.8889 41.5452 31.3229 41.3333C35.7327 39.7188 39.2848 36.2803 40.8993 31.7595C41.6377 29.7745 41.9754 27.6629 41.893 25.5466C41.8107 23.4304 41.3098 21.3514 40.4194 19.4298C39.529 17.5082 38.2666 15.7821 36.7053 14.3512C35.144 12.9202 33.3147 11.8128 31.3229 11.0928C31 10.8681 30.6771 10.447 30.6771 10.0104V8.51208C30.6771 8.28475 30.6771 8.18658 30.7908 8.07292Z" fill="#2775CA"/>
</svg>
