<svg width="250" height="80" viewBox="0 0 250 80" fill="none" xmlns="http://www.w3.org/2000/svg">
<rect
        x="33.1692"
        y="5.16923"
        width="214.662"
        height="70.6615"
        rx="18.3149"
        fill="#125641"
        stroke="#26A17B"
        strokeWidth="4.33846"
    />
<path
        d="M125.942 26.4L126.436 26.894V49.2L122.636 53H106.22L102.42 49.2V26.894L102.914 26.4H106.866L107.36 26.894V46.806L109.146 48.592H119.71L121.496 46.806V26.894L121.99 26.4H125.942ZM134.892 53L134.398 52.506L134.892 49.086L135.462 48.592H149.902L151.612 46.882V43.766L149.902 42.056H138.198L134.398 38.256V30.2L138.198 26.4H156.058L156.552 26.894L156.058 30.314L155.488 30.808H141.048L139.338 32.518V35.976L141.048 37.686H152.752L156.552 41.486V49.2L152.752 53H134.892ZM165.014 53L164.52 52.506V26.856L165.014 26.4H184.736L188.536 30.2V49.2L184.736 53H165.014ZM169.46 48.592H181.886L183.596 46.882V32.518L181.886 30.808H169.46V48.592ZM195.852 30.846L195.358 26.894L195.852 26.4H218.044L218.5 26.894L218.006 30.846L217.436 31.34H209.418V52.544L208.924 53.038H204.972L204.478 52.544V31.34H196.422L195.852 30.846Z"
        fill="white"
    />
<g clipPath="url(#clip0_1565_55)">
<path
            d="M40 80C62.0914 80 80 62.0914 80 40C80 17.9086 62.0914 0 40 0C17.9086 0 0 17.9086 0 40C0 62.0914 17.9086 80 40 80Z"
            fill="#26A17B"
        />
<path
            fillRule="evenodd"
            clipRule="evenodd"
            d="M44.805 43.4578V43.4529C44.53 43.4729 43.1125 43.5579 39.95 43.5579C37.425 43.5579 35.6475 43.4829 35.0225 43.4529V43.4604C25.3025 43.0329 18.0475 41.3404 18.0475 39.3154C18.0475 37.2904 25.3025 35.6004 35.0225 35.1654V41.7753C35.6575 41.8203 37.4775 41.9279 39.9925 41.9279C43.01 41.9279 44.5225 41.8029 44.805 41.7779V35.1704C54.505 35.6029 61.7425 37.2954 61.7425 39.3154C61.7425 41.3404 54.505 43.0278 44.805 43.4578ZM44.805 34.4829V28.5679H58.34V19.5479H21.4875V28.5679H35.0225V34.4804C24.0225 34.9854 15.75 37.1654 15.75 39.7754C15.75 42.3854 24.0225 44.5629 35.0225 45.0704V64.0254H44.805V45.0653C55.7875 44.5603 64.04 42.3829 64.04 39.7754C64.04 37.1679 55.7875 34.9904 44.805 34.4829Z"
            fill="white"
        />
</g>
<defs>
<clipPath id="clip0_1565_55">
<rect width="80" height="80" fill="white" />
</clipPath>
</defs>
</svg>
