<svg width="259" height="81" viewBox="0 0 259 81" fill="none" xmlns="http://www.w3.org/2000/svg">
<rect
        x="34.1054"
        y="5.76018"
        width="222.334"
        height="71.3418"
        rx="17.5368"
        fill="#3B3D4A"
        stroke="#646C8C"
        strokeWidth="4.15414"
    />
<path
        d="M81.913 50.3689C76.3577 71.8089 53.7784 84.842 31.5242 79.4973C9.23751 74.153 -4.30991 52.4317 1.24568 31.0226C6.80095 9.58264 29.3475 -3.45049 51.6342 1.8942C73.8884 7.20732 87.4686 28.9286 81.913 50.3689Z"
        fill="url(#paint0_linear_1572_129)"
    />
<path
        d="M61.376 35.7117C62.1881 30.3992 57.9978 27.5242 52.2158 25.6179L54.0998 18.3992L49.5522 17.3054L47.7331 24.3367C46.5312 24.0554 45.2969 23.7742 44.0625 23.5242L45.8816 16.4617L41.3339 15.3679L39.4824 22.5554C38.4754 22.3367 37.5009 22.1179 36.5589 21.8992V21.8679L30.2572 20.3679L29.0553 25.0554C29.0553 25.0554 32.4336 25.8054 32.3686 25.8367C34.2201 26.2742 34.545 27.4617 34.48 28.3992L32.3361 36.6179C32.466 36.6492 32.6285 36.6804 32.8234 36.7742C32.6609 36.7429 32.4985 36.7117 32.3361 36.6492L29.3477 48.1492C29.1203 48.6804 28.5356 49.4929 27.2687 49.1804C27.3012 49.2429 23.9555 48.3992 23.9555 48.3992L21.6816 53.4304L27.6261 54.8679C28.7305 55.1492 29.8024 55.3992 30.8744 55.6804L28.9903 62.9617L33.538 64.0554L35.422 56.8367C36.6564 57.1492 37.8907 57.4617 39.0601 57.7429L37.2086 64.9304L41.7562 66.0242L43.6402 58.7429C51.4362 60.1492 57.2831 59.5867 59.7194 52.8054C61.7009 47.3679 59.6219 44.2117 55.5291 42.1492C58.55 41.4929 60.7913 39.5867 61.376 35.7117ZM50.9489 49.7742C49.5522 55.2117 40.0021 52.2742 36.9162 51.5242L39.4174 41.8679C42.5033 42.6179 52.4432 44.0867 50.9489 49.7742ZM52.3782 35.6179C51.0789 40.5867 43.153 38.0554 40.5868 37.4304L42.8606 28.6804C45.4268 29.3054 53.71 30.4617 52.3782 35.6179Z"
        fill="white"
    />
<path
        d="M41.5794 80.6958C64.5425 80.6958 83.1578 62.7872 83.1578 40.6958C83.1578 18.6044 64.5425 0.695801 41.5794 0.695801C18.6163 0.695801 0.000976562 18.6044 0.000976562 40.6958C0.000976562 62.7872 18.6163 80.6958 41.5794 80.6958Z"
        fill="#646C8C"
    />
<path d="M42.873 10.6943V32.8693L62.3551 41.2443L42.873 10.6943Z" fill="white" fill-opacity="0.602" />
<path d="M42.8734 10.6946L23.3887 41.2446L42.8734 32.8696V10.6946Z" fill="white" />
<path d="M42.873 55.6154V70.6829L62.3681 44.7354L42.873 55.6154Z" fill="white" fill-opacity="0.602" />
<path d="M42.8734 70.6829V55.6129L23.3887 44.7354L42.8734 70.6829Z" fill="white" />
<path d="M42.873 52.1277L62.3551 41.2452L42.873 32.8752V52.1277Z" fill="white" fill-opacity="0.2" />
<path d="M23.3887 41.2452L42.8734 52.1277V32.8752L23.3887 41.2452Z" fill="white" fill-opacity="0.602" />
<path
        d="M114.214 41.22L105.322 52.62L104.79 53H100.914L100.42 52.506V26.894L100.914 26.4H104.866L105.36 26.894V44.944L114.252 34L123.144 44.944V26.894L123.638 26.4H127.59L128.084 26.894V52.506L127.59 53H123.676L123.144 52.62L114.214 41.22ZM136.566 53L136.072 52.506V26.894L136.566 26.4H157.732L158.226 26.894L157.694 30.314L157.048 30.808H141.012V37.534H154.312L154.806 38.028L154.312 41.448L153.742 41.942H141.012V48.592H157.124L157.694 49.086L158.226 52.506L157.732 53H136.566ZM165.548 30.846L165.054 26.894L165.548 26.4H187.74L188.196 26.894L187.702 30.846L187.132 31.34H179.114V52.544L178.62 53.038H174.668L174.174 52.544V31.34H166.118L165.548 30.846ZM220.06 26.4L220.554 26.894V52.506L220.06 53H216.108L215.614 52.506V41.904H199.958V52.506L199.464 53H195.512L195.018 52.506V26.894L195.512 26.4H199.464L199.958 26.894V37.496H215.614V26.894L216.108 26.4H220.06Z"
        fill="white"
    />
<defs>
<linearGradient
            id="paint0_linear_1572_129"
            x1="4155.59"
            y1="-1.2242"
            x2="4155.59"
            y2="7999.89"
            gradientUnits="userSpaceOnUse"
        >
<stop stopColor="#F9AA4B" />
<stop offset="1" stopColor="#F7931A" />
</linearGradient>
</defs>
</svg>
