    <svg
      width={width}
      height={height}
      viewBox={viewBox}
      fill="none"
      xmlns="http://www.w3.org/2000/svg"
    >
      <g clipPath="url(#clip0_2049_17)">
        <path
          d="M119.871 403.104V922.897C119.871 956.312 137.374 986.545 166.546 1003.52L616.856 1263.41C645.497 1279.86 681.034 1279.86 709.676 1263.41L1159.99 1003.52C1188.63 987.075 1206.66 956.312 1206.66 922.897V403.104C1206.66 369.689 1189.16 339.456 1159.99 322.484L709.676 62.5877C681.034 46.1453 645.497 46.1453 616.856 62.5877L166.546 322.484C137.905 338.926 120.401 369.689 120.401 403.104H119.871Z"
          fill="#213147"
        />
        <path
          d="M761.126 763.776L696.947 939.868C695.356 944.642 695.356 949.946 696.947 955.25L807.271 1258.11L935.097 1184.38L781.811 763.776C778.099 754.228 764.839 754.228 761.126 763.776Z"
          fill="#12AAFF"
        />
        <path
          d="M890.012 467.813C886.3 458.266 873.04 458.266 869.327 467.813L805.148 643.906C803.557 648.679 803.557 653.983 805.148 659.287L986.015 1155.21L1113.84 1081.49L890.012 468.343V467.813Z"
          fill="#12AAFF"
        />
        <path
          d="M663.002 82.212C666.184 82.212 669.366 83.2728 672.018 84.864L1158.93 365.976C1164.76 369.158 1167.94 375.523 1167.94 381.888V944.112C1167.94 950.477 1164.23 956.842 1158.93 960.024L672.018 1241.14C669.366 1242.73 666.184 1243.79 663.002 1243.79C659.819 1243.79 656.637 1242.73 653.985 1241.14L167.078 960.024C161.243 956.842 158.061 950.477 158.061 944.112V381.358C158.061 374.993 161.774 368.628 167.078 365.446L653.985 84.3336C656.637 82.7424 659.819 81.6816 663.002 81.6816V82.212ZM663.002 0C645.498 0 628.526 4.2432 612.614 13.26L125.706 294.372C94.4128 312.406 75.3184 345.29 75.3184 381.358V943.582C75.3184 979.649 94.4128 1012.53 125.706 1030.57L612.614 1311.68C627.995 1320.7 645.498 1324.94 663.002 1324.94C680.505 1324.94 697.478 1320.7 713.39 1311.68L1200.3 1030.57C1231.59 1012.53 1250.68 979.649 1250.68 943.582V381.358C1250.68 345.29 1231.59 312.406 1200.3 294.372L712.859 13.26C697.478 4.2432 679.974 0 662.471 0H663.002Z"
          fill="#9DCCED"
        />
        <path
          d="M340.518 1155.74L385.602 1032.69L475.77 1107.48L391.436 1184.91L340.518 1155.74Z"
          fill="#213147"
        />
        <path
          d="M621.63 341.577H498.047C489.03 341.577 480.543 347.412 477.361 355.898L212.691 1081.49L340.518 1155.21L632.238 355.898C634.89 348.472 629.586 341.047 622.16 341.047L621.63 341.577Z"
          fill="white"
        />
        <path
          d="M838.033 341.577H714.45C705.433 341.577 696.947 347.412 693.765 355.898L391.437 1184.38L519.263 1258.11L848.111 355.898C850.763 348.472 845.459 341.047 838.033 341.047V341.577Z"
          fill="white"
        />
      </g>
      <defs>
        <clipPath id="clip0_2049_17">
          <rect width="1326" height="1326" fill="white" />
        </clipPath>
      </defs>
    </svg>