<svg width="40" height="51" viewBox="0 0 40 51" fill="none" xmlns="http://www.w3.org/2000/svg">
<path d="M39.5205 20.3438C40.329 15.0313 36.1571 12.1563 30.4004 10.25L32.2762 3.03125L27.7484 1.9375L25.9374 8.96876C24.7408 8.68751 23.5118 8.40626 22.2828 8.15626L24.0939 1.09375L19.5662 0L17.7228 7.1875C16.7202 6.96875 15.75 6.75001 14.8121 6.53125V6.50001L8.53798 5L7.34137 9.68751C7.34137 9.68751 10.7048 10.4375 10.6401 10.4688C12.4836 10.9063 12.807 12.0938 12.7423 13.0313L10.6078 21.25C10.7372 21.2813 10.8989 21.3125 11.0929 21.4063C10.9312 21.375 10.7695 21.3438 10.6078 21.2813L7.63244 32.7813C7.40605 33.3125 6.82392 34.125 5.56263 33.8125C5.59497 33.875 2.26386 33.0313 2.26386 33.0313L0 38.0625L5.91837 39.5C7.01796 39.7813 8.08521 40.0313 9.15246 40.3125L7.27669 47.5938L11.8044 48.6875L13.6802 41.4688C14.9091 41.7813 16.1381 42.0938 17.3024 42.375L15.4589 49.5625L19.9866 50.6563L21.8624 43.375C29.6242 44.7813 35.4456 44.2188 37.8711 37.4375C39.8439 32 37.7741 28.8438 33.6992 26.7813C36.7069 26.125 38.9384 24.2188 39.5205 20.3438ZM29.1391 34.4063C27.7484 39.8438 18.2402 36.9063 15.1679 36.1563L17.6581 26.5C20.7305 27.25 30.6268 28.7188 29.1391 34.4063ZM30.5621 20.25C29.2685 25.2188 21.3773 22.6875 18.8224 22.0625L21.0862 13.3125C23.6412 13.9375 31.8881 15.0938 30.5621 20.25Z" fill="white"/>
</svg>
