<svg width="50" height="46" viewBox="0 0 50 46" fill="none" xmlns="http://www.w3.org/2000/svg">
<path
        fillRule="evenodd"
        clipRule="evenodd"
        d="M29.805 24.4578V24.4529C29.53 24.4729 28.1125 24.5579 24.95 24.5579C22.425 24.5579 20.6475 24.4829 20.0225 24.4529V24.4604C10.3025 24.0329 3.0475 22.3404 3.0475 20.3154C3.0475 18.2904 10.3025 16.6004 20.0225 16.1654V22.7753C20.6575 22.8203 22.4775 22.9279 24.9925 22.9279C28.01 22.9279 29.5225 22.8029 29.805 22.7779V16.1704C39.505 16.6029 46.7425 18.2954 46.7425 20.3154C46.7425 22.3404 39.505 24.0278 29.805 24.4578ZM29.805 15.4829V9.56785H43.34V0.547852H6.4875V9.56785H20.0225V15.4804C9.0225 15.9854 0.75 18.1653 0.75 20.7754C0.75 23.3854 9.0225 25.5629 20.0225 26.0704V45.0254H29.805V26.0653C40.7875 25.5603 49.04 23.3829 49.04 20.7754C49.04 18.1679 40.7875 15.9904 29.805 15.4829Z"
        fill="white"
    />
</svg>
