<svg width="64" height="64" viewBox="0 0 64 64" fill="none" xmlns="http://www.w3.org/2000/svg">
<path d="M51.6019 13.5599L49.8769 15.2849C53.993 19.7861 56.2756 25.6648 56.2756 31.7644C56.2756 37.8639 53.993 43.7426 49.8769 48.2439L51.6019 49.9689C56.1807 45.0042 58.7229 38.498 58.7229 31.7442C58.7229 24.9905 56.1807 18.4842 51.6019 13.5196V13.5599ZM15.3251 13.7094C19.8264 9.59322 25.7051 7.31061 31.8046 7.31061C37.9041 7.31061 43.7828 9.59322 48.2841 13.7094L50.0091 11.9844C45.0445 7.40554 38.5382 4.86328 31.7845 4.86328C25.0307 4.86328 18.5245 7.40554 13.5599 11.9844L15.3251 13.7094ZM13.7094 48.2611C9.59809 43.7608 7.31849 37.8857 7.31849 31.7902C7.31849 25.6947 9.59809 19.8196 13.7094 15.3194L11.9844 13.5944C7.40554 18.559 4.86328 25.0652 4.86328 31.819C4.86328 38.5727 7.40554 45.079 11.9844 50.0436L13.7094 48.2611ZM48.2611 49.8539C43.7598 53.97 37.8811 56.2526 31.7816 56.2526C25.6821 56.2526 19.8034 53.97 15.3021 49.8539L13.5771 51.5789C18.5417 56.1577 25.048 58.6999 31.8017 58.6999C38.5555 58.6999 45.0617 56.1577 50.0263 51.5789L48.2611 49.8539ZM42.6779 26.0316C42.3329 22.4321 39.2279 21.2246 35.3006 20.8566V15.9001H32.2646V20.7646H29.8381V15.9001H26.8251V20.8911H20.6669V24.1399C20.6669 24.1399 22.9094 24.0996 22.8749 24.1399C23.2792 24.0954 23.685 24.2096 24.0068 24.4584C24.3286 24.7073 24.5412 25.0713 24.5999 25.4739V39.1359C24.5912 39.2778 24.5542 39.4166 24.491 39.544C24.4278 39.6714 24.3397 39.7848 24.2319 39.8776C24.1257 39.9716 24.0018 40.0434 23.8676 40.0888C23.7333 40.1342 23.5912 40.1524 23.4499 40.1421C23.4901 40.1766 21.2419 40.1421 21.2419 40.1421L20.6669 43.7704H26.7676V48.8419H29.8036V43.8451H32.2301V48.8189H35.2719V43.8049C40.4009 43.4944 43.9773 42.2294 44.4258 37.4281C44.7881 33.5641 42.9711 31.8391 40.0673 31.1434C41.8326 30.2751 42.9251 28.6651 42.6779 26.0316ZM38.4228 36.8301C38.4228 40.6021 31.9599 40.1709 29.9014 40.1709V33.4779C31.9599 33.4836 38.4228 32.8914 38.4228 36.8301ZM37.0141 27.4001C37.0141 30.8501 31.6206 30.4304 29.9071 30.4304V24.3469C31.6206 24.3469 37.0141 23.8064 37.0141 27.4001Z" fill="white"/>
<path d="M51.6019 13.5599L49.8769 15.2849C53.993 19.7861 56.2756 25.6648 56.2756 31.7644C56.2756 37.8639 53.993 43.7426 49.8769 48.2439L51.6019 49.9689C56.1807 45.0042 58.7229 38.498 58.7229 31.7442C58.7229 24.9905 56.1807 18.4842 51.6019 13.5196V13.5599ZM15.3251 13.7094C19.8264 9.59322 25.7051 7.31061 31.8046 7.31061C37.9041 7.31061 43.7828 9.59322 48.2841 13.7094L50.0091 11.9844C45.0445 7.40554 38.5382 4.86328 31.7845 4.86328C25.0307 4.86328 18.5245 7.40554 13.5599 11.9844L15.3251 13.7094ZM13.7094 48.2611C9.59809 43.7608 7.31849 37.8857 7.31849 31.7902C7.31849 25.6947 9.59809 19.8196 13.7094 15.3194L11.9844 13.5944C7.40554 18.559 4.86328 25.0652 4.86328 31.819C4.86328 38.5727 7.40554 45.079 11.9844 50.0436L13.7094 48.2611ZM48.2611 49.8539C43.7598 53.97 37.8811 56.2526 31.7816 56.2526C25.6821 56.2526 19.8034 53.97 15.3021 49.8539L13.5771 51.5789C18.5417 56.1577 25.048 58.6999 31.8017 58.6999C38.5555 58.6999 45.0617 56.1577 50.0263 51.5789L48.2611 49.8539Z" fill="#C3691A"/>
<path d="M31.7815 63.1995C14.4337 63.1966 0.375 49.1321 0.375 31.7844C0.375 14.4366 14.4395 0.375 31.7844 0.375C49.1293 0.375 63.1966 14.4337 63.1995 31.7815C63.2003 35.9076 62.3881 39.9934 60.8095 43.8055C59.2309 47.6177 56.9166 51.0815 53.9991 53.9991C51.0815 56.9166 47.6177 59.2309 43.8055 60.8095C39.9934 62.3881 35.9076 63.2003 31.7815 63.1995ZM31.7815 2.8245C15.7994 2.836 2.85325 15.7994 2.859 31.7815C2.86475 47.7636 15.8253 60.7155 31.8045 60.7155C47.7866 60.7155 60.7442 47.7636 60.75 31.7815C60.7508 27.9776 60.0019 24.2109 58.5462 20.6966C57.0905 17.1823 54.9566 13.9893 52.2663 11.3001C49.576 8.61085 46.3822 6.47816 42.8673 5.02388C39.3524 3.5696 35.5854 2.82223 31.7815 2.8245Z" fill="#C3691A"/>
</svg>
