<?xml version="1.0" standalone="no"?>
<!DOCTYPE svg PUBLIC "-//W3C//DTD SVG 20010904//EN"
 "http://www.w3.org/TR/2001/REC-SVG-20010904/DTD/svg10.dtd">
<svg version="1.0" xmlns="http://www.w3.org/2000/svg"
 width="314.000000pt" height="314.000000pt" viewBox="0 0 314.000000 314.000000"
 preserveAspectRatio="xMidYMid meet">
<metadata>
Created by potrace 1.14, written by Peter Selinger 2001-2017
</metadata>
<g transform="translate(0.000000,314.000000) scale(0.100000,-0.100000)"
fill="#000000" stroke="none">
<path d="M452 3120 c-214 -56 -371 -213 -432 -431 -19 -71 -20 -99 -19 -1118
0 -996 1 -1049 19 -1119 26 -99 72 -181 146 -260 68 -74 140 -122 242 -161
l67 -26 1045 -3 c760 -2 1065 0 1120 8 232 36 433 228 485 462 14 65 15 192
13 1128 l-3 1055 -22 65 c-64 186 -208 330 -393 393 l-65 22 -1065 2 c-1021 2
-1068 1 -1138 -17z"/>
</g>
</svg>
