<svg
  width="100"
  height="20"
  viewBox="0 0 200 46"
  fill="none"
  xmlns="http://www.w3.org/2000/svg"
>
  <rect
    x="17.2437"
    y="3.24368"
    width="134.513"
    height="39.5126"
    rx="10.5004"
    fill="url(#paint0_linear_4723_44)"
    stroke="#FFA04C"
    strokeWidth="2.48735"
  />
  <path
    d="M45.0827 28.4175C42.0253 40.6832 29.5982 48.1393 17.3501 45.0816C5.08408 42.0242 -2.37206 29.5976 0.685591 17.3497C3.74306 5.08408 16.1521 -2.37206 28.4181 0.685592C40.6662 3.72518 48.1404 16.1517 45.0827 28.4175Z"
    fill="url(#paint1_linear_4723_44)"
  />
  <path
    d="M33.7803 20.032C34.2273 16.9928 31.921 15.348 28.7388 14.2575L29.7757 10.1277L27.2728 9.50198L26.2716 13.5245C25.6101 13.3636 24.9308 13.2027 24.2514 13.0597L25.2526 9.01928L22.7497 8.39355L21.7307 12.5055C21.1764 12.3803 20.6401 12.2552 20.1216 12.13V12.1121L16.6533 11.254L15.9919 13.9357C15.9919 13.9357 17.8512 14.3648 17.8154 14.3826C18.8344 14.6329 19.0132 15.3123 18.9775 15.8486L17.7975 20.5505C17.869 20.5684 17.9584 20.5862 18.0657 20.6399C17.9763 20.622 17.8869 20.6041 17.7975 20.5684L16.1528 27.1474C16.0276 27.4513 15.7058 27.9162 15.0086 27.7374C15.0265 27.7731 13.185 27.2904 13.185 27.2904L11.9336 30.1688L15.2052 30.9912C15.8131 31.1521 16.4031 31.2951 16.993 31.456L15.9561 35.6215L18.459 36.2472L19.4959 32.1175C20.1753 32.2962 20.8546 32.475 21.4982 32.6359L20.4792 36.7478L22.9821 37.3735L24.019 33.208C28.3097 34.0125 31.5277 33.6907 32.8686 29.8112C33.9591 26.7005 32.8149 24.8948 30.5623 23.7149C32.2249 23.3394 33.4585 22.2489 33.7803 20.032ZM28.0415 28.0771C27.2728 31.1878 22.0167 29.5073 20.3183 29.0782L21.6949 23.554C23.3933 23.983 28.8639 24.8233 28.0415 28.0771ZM28.8282 19.9784C28.113 22.821 23.7508 21.3729 22.3385 21.0153L23.5899 16.0095C25.0023 16.3671 29.5611 17.0286 28.8282 19.9784Z"
    fill="white"
  />
  <path
    d="M65.0413 23.4441L59.3379 30.7563L58.9966 31H56.5105L56.1936 30.6831V14.2552L56.5105 13.9383H59.0454L59.3622 14.2552V25.8328L65.0657 18.8131L70.7692 25.8328V14.2552L71.086 13.9383H73.6209L73.9378 14.2552V30.6831L73.6209 31H71.1104L70.7692 30.7563L65.0413 23.4441ZM79.3781 31L79.0612 30.6831V14.2308L79.3781 13.9383H92.0281L94.4654 16.3757V20.0074L92.3449 22.5179V22.6398L94.4654 25.1259V28.5626L92.0281 31H79.3781ZM82.2298 21.3724H90.2488L91.2968 20.0318V17.8625L90.2 16.7657H82.2298V21.3724ZM82.2298 28.1726H90.2L91.2968 27.0758V25.004L90.2488 23.6635H82.2298V28.1726ZM99.158 16.7901L98.8411 14.2552L99.158 13.9383H113.392L113.685 14.2552L113.368 16.7901L113.002 17.1069H107.859V30.7075L107.543 31.0244H105.008L104.691 30.7075V17.1069H99.5236L99.158 16.7901ZM131.027 13.9383L133.464 16.3757V18.935L133.148 19.2275H130.613L130.296 18.935V17.9113L129.15 16.7657H122.326L121.229 17.8625V27.0758L122.326 28.1726H129.15L130.296 27.0271V26.0034L130.613 25.7109H133.148L133.464 26.0034V28.5626L131.027 31H120.498L118.06 28.5626V16.3757L120.498 13.9383H131.027Z"
    fill="white"
  />
  <defs>
    <linearGradient
      id="paint0_linear_4723_44"
      x1="84.5"
      y1="2"
      x2="84.5"
      y2="44"
      gradientUnits="userSpaceOnUse"
    >
      <stop stopColor="#C16C21" />
      <stop offset="1" stopColor="#C46816" />
    </linearGradient>
    <linearGradient
      id="paint1_linear_4723_44"
      x1="2287.13"
      y1="-1.09841"
      x2="2287.13"
      y2="4576.27"
      gradientUnits="userSpaceOnUse"
    >
      <stop stopColor="#F9AA4B" />
      <stop offset="1" stopColor="#F7931A" />
    </linearGradient>
  </defs>
</svg> 