<svg width="246" height="247" viewBox="0 0 246 247" fill="none" xmlns="http://www.w3.org/2000/svg">
<path d="M123.358 238.435C59.8816 238.435 8.42383 186.977 8.42383 123.501C8.42383 60.0242 59.8816 8.56641 123.358 8.56641" stroke="url(#paint0_linear_3795_774)" stroke-width="16" stroke-linecap="round"/>
<path d="M123.066 238.435C186.542 238.435 238 186.977 238 123.501C238 60.0242 186.542 8.56641 123.066 8.56641" stroke="url(#paint1_linear_3795_774)" stroke-width="16" stroke-linecap="round"/>
<path fill-rule="evenodd" clip-rule="evenodd" d="M187.5 82.1798C189.398 84.0785 190.465 86.6534 190.465 89.3382C190.465 92.023 189.398 94.5979 187.5 96.4966L111.609 172.387C110.606 173.391 109.416 174.186 108.105 174.729C106.795 175.272 105.39 175.552 103.972 175.552C102.553 175.552 101.149 175.272 99.838 174.729C98.5275 174.186 97.3368 173.391 96.3339 172.387L58.6282 134.688C57.6611 133.754 56.8898 132.637 56.3591 131.402C55.8285 130.167 55.5492 128.838 55.5375 127.494C55.5258 126.149 55.782 124.816 56.2911 123.572C56.8002 122.327 57.552 121.197 58.5027 120.246C59.4533 119.295 60.5838 118.544 61.8282 118.034C63.0725 117.525 64.4058 117.269 65.7502 117.281C67.0946 117.293 68.4232 117.572 69.6585 118.102C70.8938 118.633 72.011 119.404 72.945 120.372L103.968 151.395L173.176 82.1798C174.117 81.2389 175.233 80.4925 176.462 79.9833C177.691 79.474 179.008 79.2119 180.338 79.2119C181.668 79.2119 182.986 79.474 184.214 79.9833C185.443 80.4925 186.56 81.2389 187.5 82.1798Z" fill="url(#paint2_linear_3795_774)"/>
<defs>
<linearGradient id="paint0_linear_3795_774" x1="65.8909" y1="8.56641" x2="65.8909" y2="238.435" gradientUnits="userSpaceOnUse">
<stop stop-color="#7062A9"/>
<stop offset="1" stop-color="#6267A9"/>
</linearGradient>
<linearGradient id="paint1_linear_3795_774" x1="180.533" y1="8.56641" x2="180.533" y2="238.435" gradientUnits="userSpaceOnUse">
<stop stop-color="#7062A9"/>
<stop offset="1" stop-color="#6267A9"/>
</linearGradient>
<linearGradient id="paint2_linear_3795_774" x1="123.001" y1="79.2119" x2="123.001" y2="175.552" gradientUnits="userSpaceOnUse">
<stop stop-color="#6565A9"/>
<stop offset="1" stop-color="#7061A8"/>
</linearGradient>
</defs>
</svg>
