<svg width="50" height="50" viewBox="0 0 50 50" fill="none" xmlns="http://www.w3.org/2000/svg">
<circle cx="25" cy="25" r="20.5" fill="#E1E1E1" stroke="#27623F" strokeWidth="9" />
<path
        fillRule="evenodd"
        clipRule="evenodd"
        d="M25 46C30.5695 46 35.911 43.7875 39.8492 39.8492C43.7875 35.911 46 30.5695 46 25C46 19.4305 43.7875 14.089 39.8492 10.1508C35.911 6.21249 30.5695 4 25 4C19.4305 4 14.089 6.21249 10.1508 10.1508C6.21249 14.089 4 19.4305 4 25C4 30.5695 6.21249 35.911 10.1508 39.8492C14.089 43.7875 19.4305 46 25 46ZM34.3 20.35C34.4773 20.1136 34.6063 19.8446 34.6796 19.5584C34.7529 19.2722 34.7692 18.9743 34.7274 18.6818C34.6856 18.3893 34.5866 18.1079 34.4361 17.8536C34.2855 17.5994 34.0864 17.3773 33.85 17.2C33.6136 17.0227 33.3446 16.8937 33.0584 16.8204C32.7722 16.7471 32.4743 16.7308 32.1818 16.7726C31.8893 16.8144 31.6079 16.9134 31.3536 17.0639C31.0994 17.2145 30.8773 17.4136 30.7 17.65L23.257 27.574L19.09 23.41C18.6635 23.0126 18.0993 22.7962 17.5164 22.8065C16.9335 22.8168 16.3774 23.0529 15.9651 23.4651C15.5529 23.8774 15.3168 24.4335 15.3065 25.0164C15.2962 25.5993 15.5126 26.1635 15.91 26.59L21.91 32.59C22.1379 32.8178 22.412 32.9941 22.7139 33.1068C23.0158 33.2195 23.3383 33.266 23.6597 33.2433C23.9812 33.2205 24.2939 33.129 24.5769 32.9749C24.8599 32.8208 25.1065 32.6077 25.3 32.35L34.3 20.35Z"
        fill="#2A824D"
    />
</svg>
