<svg width="88" height="88" viewBox="0 0 88 88" fill="none" xmlns="http://www.w3.org/2000/svg">
<g clipPath="url(#clip0_1404_1439)">
<path
            d="M44.001 68.4805C57.5224 68.4805 68.4832 57.519 68.4832 43.9975C68.4832 30.4761 57.5224 19.5146 44.001 19.5146C30.4796 19.5146 19.5181 30.4761 19.5181 43.9975C19.5181 57.519 30.4792 68.4805 44.0006 68.4805"
            fill="white"
        />
<path
            d="M12.3371 31.9677C10.5107 28.804 8.36384 25.4838 5.89663 22.0068C2.03415 28.6953 0.000619483 36.2828 0.000488288 44.0064C0.000357092 51.7301 2.03363 59.3176 5.89589 66.0062C9.75814 72.6948 15.3132 78.2488 22.0027 82.1096C28.6921 85.9704 36.2801 88.0021 44.0037 88.0003C48.0533 82.3204 50.8029 78.2252 52.2524 75.7147C55.0363 70.8926 58.6368 63.9888 63.054 55.0034V54.9982C61.1242 58.344 58.3476 61.1228 55.0032 63.0549C51.6588 64.9871 47.8646 66.0047 44.0022 66.0053C40.1397 66.0059 36.3452 64.9895 33.0002 63.0583C29.6553 61.1272 26.8777 58.3493 24.9469 55.0041C18.9478 43.8157 14.7445 36.1367 12.3371 31.9677Z"
            fill="#229342"
        />
<path
            d="M44.0028 87.9985C49.7811 87.9995 55.5029 86.8621 60.8415 84.6513C66.1801 82.4404 71.0308 79.1994 75.1166 75.1134C79.2024 71.0274 82.4431 66.1765 84.6537 60.8378C86.8642 55.4991 88.0013 49.7772 88 43.9989C87.9984 36.2752 85.9636 28.688 82.1002 21.9999C73.765 21.1784 67.6135 20.7676 63.6457 20.7676C59.1467 20.7676 52.598 21.1784 43.9997 21.9999L43.9949 22.0034C47.8574 22.0014 51.6523 23.0166 54.9979 24.9468C58.3436 26.877 61.122 29.6541 63.0537 32.9989C64.9856 36.3436 66.0026 40.1381 66.0025 44.0007C66.0025 47.8632 64.9853 51.6576 63.0534 55.0023L44.0028 87.9985Z"
            fill="#FBC116"
        />
<path
            d="M44.0011 61.4201C53.6206 61.4201 61.4185 53.6221 61.4185 44.0023C61.4185 34.3824 53.6206 26.5845 44.0007 26.5845C34.3816 26.5845 26.5833 34.3828 26.5833 44.0023C26.5833 53.6218 34.3816 61.4201 44.0011 61.4201Z"
            fill="#1A73E8"
        />
<path
            d="M44.001 22.0015H82.1012C78.2404 15.312 72.6864 9.75682 65.9977 5.89467C59.309 2.03251 51.7213 -0.000522512 43.9976 1.00732e-07C36.2739 0.000522713 28.6865 2.03458 21.9983 5.89764C15.3101 9.76071 9.75683 15.3166 5.89697 22.0067L24.9473 55.0032L24.9524 55.006C23.0197 51.6618 22.0016 47.8677 22.0004 44.0052C21.9993 40.1427 23.0152 36.348 24.9459 33.0027C26.8767 29.6574 29.6542 26.8795 32.9993 24.9483C36.3443 23.017 40.1388 22.0006 44.0013 22.0012L44.001 22.0015Z"
            fill="#E33B2E"
        />
</g>
<defs>
<clipPath id="clip0_1404_1439">
<rect width="88" height="88" fill="white" />
</clipPath>
</defs>
</svg>
