<svg width="98" height="98" viewBox="0 0 98 98" fill="none" xmlns="http://www.w3.org/2000/svg">
<path d="M91.9744 71.2414L58.4975 13.1036C57.5278 11.4453 56.1409 10.0698 54.4746 9.1139C52.8084 8.158 50.9209 7.65503 48.9999 7.65503C47.0789 7.65503 45.1914 8.158 43.5252 9.1139C41.8589 10.0698 40.472 11.4453 39.5023 13.1036L6.02537 71.2414C5.08449 72.8506 4.58862 74.6811 4.58862 76.5452C4.58862 78.4093 5.08449 80.2399 6.02537 81.8491C6.98427 83.5156 8.36929 84.8971 10.0383 85.8517C11.7074 86.8063 13.6003 87.2997 15.5229 87.2812H82.4769C84.3982 87.2983 86.2896 86.8043 87.9571 85.8497C89.6247 84.8952 91.0085 83.5145 91.9668 81.8491C92.9088 80.2405 93.406 78.4103 93.4073 76.5463C93.4087 74.6822 92.9141 72.8513 91.9744 71.2414ZM84.0119 77.2515C83.8562 77.5168 83.6318 77.7351 83.3622 77.8834C83.0927 78.0316 82.7881 78.1043 82.4807 78.0937H15.5229C15.2155 78.1043 14.9109 78.0316 14.6414 77.8834C14.3719 77.7351 14.1474 77.5168 13.9917 77.2515C13.8596 77.0368 13.7897 76.7896 13.7897 76.5376C13.7897 76.2855 13.8596 76.0383 13.9917 75.8236L47.4687 17.6859C47.6344 17.4307 47.8613 17.221 48.1287 17.0759C48.3962 16.9307 48.6956 16.8547 48.9999 16.8547C49.3042 16.8547 49.6036 16.9307 49.8711 17.0759C50.1385 17.221 50.3654 17.4307 50.5312 17.6859L84.0043 75.8236C84.1375 76.0376 84.2087 76.2844 84.2101 76.5365C84.2114 76.7886 84.1428 77.0361 84.0119 77.2515ZM44.4062 52.0624V39.8124C44.4062 38.5941 44.8901 37.4257 45.7516 36.5642C46.6131 35.7027 47.7816 35.2187 48.9999 35.2187C50.2182 35.2187 51.3867 35.7027 52.2482 36.5642C53.1097 37.4257 53.5937 38.5941 53.5937 39.8124V52.0624C53.5937 53.2808 53.1097 54.4492 52.2482 55.3107C51.3867 56.1722 50.2182 56.6562 48.9999 56.6562C47.7816 56.6562 46.6131 56.1722 45.7516 55.3107C44.8901 54.4492 44.4062 53.2808 44.4062 52.0624ZM55.1249 67.3749C55.1249 68.5864 54.7657 69.7706 54.0927 70.7778C53.4196 71.7851 52.463 72.5701 51.3438 73.0337C50.2246 73.4973 48.9931 73.6186 47.805 73.3823C46.6168 73.1459 45.5255 72.5626 44.6689 71.706C43.8123 70.8494 43.2289 69.758 42.9926 68.5699C42.7563 67.3817 42.8776 66.1502 43.3411 65.031C43.8047 63.9118 44.5898 62.9552 45.597 62.2822C46.6043 61.6092 47.7885 61.2499 48.9999 61.2499C50.6244 61.2499 52.1823 61.8953 53.3309 63.0439C54.4796 64.1926 55.1249 65.7505 55.1249 67.3749Z" fill="#434343"/>
</svg>
